# xmcd CD database file
#
# Track frame offsets:
#	150
#	20662
#	41444
#	57185
#	77550
#	96686
#	138571
#	154886
#	176455
#	188586
#	204020
#	227259
#
# Disc length: 3440 seconds
#
# Revision: 0
# Processed by: cddbd v1.5.2PL0 Copyright (c) Steve Scherf et al.
# Submitted via: CDex 1.51
#
DISCID=910d6e0c
DTITLE=Various Artist - Jazz Pop
DYEAR=2006
DGENRE=Jazz
TTITLE0=Nils Landgren Joe Sample - (sittin' on the) dock of the bay
TTITLE1=Tok Tok Tok - About
TTITLE2=Take 6 - This Is Another Day
TTITLE3=Hiram Bullock - If You Don't Mean It, Don't Say It
TTITLE4=Maceo Parker - Song For My Teacher
TTITLE5=Charlie Hunter - What I Am
TTITLE6=Paddy Milner - Walking On Eggshells
TTITLE7=Mezzoforte - Nightfall
TTITLE8=Heather Greene - Hold Me Down
TTITLE9=Viktoria Tolstoy - The Morning Of you
TTITLE10=French Acoustic - Que reste-t-ilde nos amours?
TTITLE11=Ulrich Drechsler Quartet feat. Tord Gustafson - For andy, Dedicated To Desi
EXTD=YEAR: 2006
EXTT0=
EXTT1=
EXTT2=
EXTT3=
EXTT4=
EXTT5=
EXTT6=
EXTT7=
EXTT8=
EXTT9=
EXTT10=
EXTT11=
PLAYORDER=
